# xmcd
# 
# Track frame offsets:
#     150
#     18682
#     26160
#     45680
#     65547
#     83365
#     92720
#     111342
#     130700
#     143092
#     160507
#     177745
# 
# Disc length: 2565
# 
# Revision: 2
# Processed by: cddbd v1.5.2PL0 Copyright (c) Steve Scherf et al.
# Submitted via: BonkEnc v1.0.8
# 
DISCID=9c0a030c
DTITLE=Various Artist - アニメ・ザ・ムービー
DYEAR=1988
DGENRE=Anime
TTITLE0=安田成美 - 風の谷のナウシカ
TTITLE1=幼いナウシカ - 王蟲との交流
TTITLE2=安田成美 - 風の妖精
TTITLE3=後藤恭子 - ペガサスの少女
TTITLE4=小幡洋子 - もしも空を飛べたら
TTITLE5=杉並児童合唱団 - 君をのせて
TTITLE6=井上あずみ - 君をのせて
TTITLE7=井上あずみ - となりのトトロ
TTITLE8=井上あずみ - 井上さんぽ
TTITLE9=井上あずみ - おかあさん
TTITLE10=井上あずみ - まいご
TTITLE11=杉並児童合唱団 - 風のとおり道
EXTD=
EXTT0=
EXTT1=
EXTT2=
EXTT3=
EXTT4=
EXTT5=
EXTT6=
EXTT7=
EXTT8=
EXTT9=
EXTT10=
EXTT11=
PLAYORDER=
